<mxfile host="app.diagrams.net" modified="2024-03-04T11:59:17.324Z" agent="Mozilla/5.0 (Windows NT 10.0; Win64; x64) AppleWebKit/537.36 (KHTML, like Gecko) Chrome/122.0.0.0 Safari/537.36" etag="D6RH8VBLpNI4hxBpgUIz" version="24.0.0" type="github">
  <diagram name="第 1 页" id="nHW9ShSoLdS73ZJ4oMdE">
    <mxGraphModel dx="533" dy="352" grid="0" gridSize="10" guides="1" tooltips="1" connect="1" arrows="1" fold="1" page="1" pageScale="1" pageWidth="827" pageHeight="1169" math="0" shadow="0">
      <root>
        <mxCell id="0" />
        <mxCell id="1" parent="0" />
      </root>
    </mxGraphModel>
  </diagram>
</mxfile>
